<?xml version="1.0" standalone="no"?>
<!DOCTYPE svg PUBLIC "-//W3C//DTD SVG 20010904//EN"
 "http://www.w3.org/TR/2001/REC-SVG-20010904/DTD/svg10.dtd">
<svg version="1.0" xmlns="http://www.w3.org/2000/svg"
 width="558.000000pt" height="447.000000pt" viewBox="0 0 558.000000 447.000000"
 preserveAspectRatio="xMidYMid meet">

<g transform="translate(0.000000,447.000000) scale(0.100000,-0.100000)"
fill="#000000" stroke="none">
<path d="M2099 3780 c-52 -28 -86 -72 -98 -130 -16 -73 -15 -1919 0 -1992 35
-161 245 -198 340 -60 22 33 24 47 27 174 l4 138 234 0 234 0 0 -484 c0 -514
1 -528 49 -579 40 -43 74 -57 143 -57 74 0 121 26 159 87 l24 38 0 775 c0 426
-3 787 -7 802 -19 64 -105 127 -175 128 -37 0 -109 -26 -137 -49 -37 -32 -50
-74 -56 -176 l-5 -100 -230 0 -230 0 -3 488 c-1 290 2 487 7 487 9 0 59 -29
381 -215 74 -43 153 -88 175 -100 22 -12 81 -45 130 -75 85 -50 146 -86 368
-213 50 -30 136 -80 190 -111 54 -31 121 -69 149 -84 65 -34 124 -89 133 -125
12 -46 -4 -99 -39 -132 -18 -16 -91 -63 -162 -103 -71 -40 -163 -92 -204 -116
l-75 -44 -3 -216 c-1 -137 1 -216 7 -216 6 0 54 26 108 58 54 31 110 64 125
72 166 92 397 231 441 264 46 35 116 131 146 201 86 196 25 447 -142 588 -28
24 -90 66 -137 92 -47 27 -116 67 -155 90 -38 23 -178 104 -310 180 -132 76
-283 163 -335 194 -52 31 -99 58 -105 60 -5 2 -57 31 -115 66 -165 97 -284
166 -425 245 -71 40 -146 83 -165 96 -119 77 -190 92 -261 54z"/>
<path d="M1377 3069 c-20 -11 -49 -38 -65 -61 l-27 -42 0 -950 0 -951 27 -68
c56 -139 147 -234 287 -301 64 -30 70 -31 201 -31 l135 0 85 42 c105 53 164
87 445 253 44 26 99 57 123 70 l42 24 0 218 c0 120 -2 218 -5 218 -2 0 -35
-19 -72 -42 -38 -23 -90 -54 -118 -68 -66 -35 -261 -147 -305 -176 -87 -55
-291 -165 -317 -170 -40 -8 -111 32 -134 76 -18 33 -19 77 -19 935 0 854 -1
902 -19 940 -21 46 -54 79 -94 94 -45 17 -128 12 -170 -10z"/>
</g>
</svg>
